HIERARCHY
ROOT Hips
{
    OFFSET 0.000000 0.000000 0.000000
    CHANNELS 6 Xposition Yposition Zposition Zrotation Xrotation Yrotation
    JOINT Spine
    {
        OFFSET -0.000000 8.603107 0.000000
        CHANNELS 3 Zrotation Xrotation Yrotation
        JOINT Spine1
        {
            OFFSET -0.000000 23.906662 0.000000
            CHANNELS 3 Zrotation Xrotation Yrotation
            JOINT Neck
            {
                OFFSET -0.000000 23.808481 2.164407
                CHANNELS 3 Zrotation Xrotation Yrotation
                JOINT Head
                {
                    OFFSET -0.000000 14.688231 -2.098319
                    CHANNELS 3 Zrotation Xrotation Yrotation
                    End Site
                    {
                        OFFSET -0.000000 26.228985 0.000000
                    }
                }
            }
            JOINT LeftShoulder
            {
                OFFSET 4.178941 22.658146 -0.129871
                CHANNELS 3 Zrotation Xrotation Yrotation
                JOINT LeftArm
                {
                    OFFSET 9.497952 0.000000 0.000000
                    CHANNELS 3 Zrotation Xrotation Yrotation
                    JOINT LeftForeArm
                    {
                        OFFSET 38.855015 0.000000 0.000000
                        CHANNELS 3 Zrotation Xrotation Yrotation
                        JOINT LeftHand
                        {
                            OFFSET 24.940550 0.000000 0.000000
                            CHANNELS 3 Zrotation Xrotation Yrotation
                            End Site
                            {
                                OFFSET 15.737392 0.000000 0.000000
                            }
                        }
                    }
                }
            }
            JOINT RightShoulder
            {
                OFFSET -4.145384 22.658146 -0.129871
                CHANNELS 3 Zrotation Xrotation Yrotation
                JOINT RightArm
                {
                    OFFSET -9.497952 0.000000 0.000000
                    CHANNELS 3 Zrotation Xrotation Yrotation
                    JOINT RightForeArm
                    {
                        OFFSET -38.855015 0.000000 0.000000
                        CHANNELS 3 Zrotation Xrotation Yrotation
                        JOINT RightHand
                        {
                            OFFSET -24.940550 0.000000 0.000000
                            CHANNELS 3 Zrotation Xrotation Yrotation
                            End Site
                            {
                                OFFSET -15.737392 0.000000 0.000000
                            }
                        }
                    }
                }
            }
        }
    }
    JOINT LeftUpLeg
    {
        OFFSET 10.491594 0.000000 0.000000
        CHANNELS 3 Zrotation Xrotation Yrotation
        JOINT LeftLeg
        {
            OFFSET -0.000000 -46.080647 0.000000
            CHANNELS 3 Zrotation Xrotation Yrotation
            JOINT LeftFoot
            {
                OFFSET -0.000000 -50.184704 0.000000
                CHANNELS 3 Zrotation Xrotation Yrotation
                JOINT LeftToeBase
                {
                    OFFSET -0.000000 -6.819536 15.737392
                    CHANNELS 3 Zrotation Xrotation Yrotation
                    End Site
                    {
                        OFFSET -0.000000 0.000000 4.196638
                    }
                }
            }
        }
    }
    JOINT RightUpLeg
    {
        OFFSET -10.491594 0.000000 0.000000
        CHANNELS 3 Zrotation Xrotation Yrotation
        JOINT RightLeg
        {
            OFFSET -0.000000 -46.080647 0.000000
            CHANNELS 3 Zrotation Xrotation Yrotation
            JOINT RightFoot
            {
                OFFSET -0.000000 -50.184704 0.000000
                CHANNELS 3 Zrotation Xrotation Yrotation
                JOINT RightToeBase
                {
                    OFFSET -0.000000 -6.819536 15.737392
                    CHANNELS 3 Zrotation Xrotation Yrotation
                    End Site
                    {
                        OFFSET -0.000000 0.000000 4.196638
                    }
                }
            }
        }
    }
}
MOTION
Frames:    5
Frame Time:    0.008333
-10.071663    102.477562    43.384628    -2.738968    -1.320811    97.867920    -2.284297    -8.396408    1.747534    6.574792    7.112169    1.506177    2.465423    7.708290    -1.500641    -0.037947    -6.088550    -1.764298    -9.477793    12.679884    -13.173204    -48.890045    38.223888    -16.136232    4.054536    -7.200005    -24.639641    -8.325577    -6.653591    4.610361    7.479735    8.924774    -8.994645    31.290363    56.189747    32.552933    -2.694369    -10.752036    16.671616    4.606589    -10.364687    -0.016649    6.543591    -25.562037    4.430852    -7.365577    56.537941    1.864585    -11.995011    -16.504412    0.610774    0.000000    0.000000    0.000000    4.387466    4.630221    -0.230970    2.874712    -3.226069    -2.483237    -9.213527    -2.610387    -14.019346    0.000000    0.000000    0.000000    
-10.061408    102.518532    43.416023    -2.764867    -1.259284    97.787933    -2.337530    -8.469310    1.785627    6.610450    7.187566    1.543068    2.454899    7.678274    -1.514886    0.014719    -6.027105    -1.768736    -9.517359    12.708316    -13.010058    -49.159966    38.059071    -15.967707    3.318871    -6.824193    -23.666189    -8.236210    -6.444853    4.358012    7.455316    8.895055    -9.000952    31.143593    56.173267    32.769302    -2.663294    -10.777920    16.590401    4.127502    -10.400536    -0.119375    6.617668    -26.132195    4.339965    -7.903651    57.825893    2.477494    -12.123955    -16.940414    0.587327    0.000000    0.000000    0.000000    4.376581    4.509608    -0.193383    2.798474    -3.033028    -2.356912    -9.236082    -2.560597    -14.084148    0.000000    0.000000    0.000000    
-10.032696    102.565254    43.425861    -2.767155    -1.100886    97.583267    -2.450362    -8.526378    1.863764    6.606322    7.272781    1.626103    2.460113    7.713479    -1.520924    0.079834    -6.012727    -1.762056    -9.531662    12.666700    -12.851851    -49.676041    38.166298    -15.469895    2.931129    -6.744587    -23.069580    -8.009099    -6.458170    4.429579    7.456662    8.881617    -8.939452    31.060434    56.071388    32.900452    -2.604699    -10.676320    16.485559    3.804452    -10.308386    -0.092014    6.685821    -26.534307    4.136569    -9.194411    58.898327    3.879474    -12.173745    -17.422222    0.608715    0.000000    0.000000    0.000000    4.250760    4.397272    -0.208082    2.747587    -2.780211    -2.122190    -9.316407    -2.562437    -14.123113    0.000000    0.000000    0.000000    
-10.012742    102.604034    43.438766    -2.721997    -0.995031    97.484070    -2.488247    -8.476582    1.867856    6.550767    7.276341    1.635284    2.490713    7.639007    -1.453263    0.099068    -5.776125    -1.692253    -9.534747    12.630102    -12.645393    -50.255402    38.400288    -14.893309    2.827436    -6.795148    -22.552383    -8.326208    -6.574801    4.699494    7.411278    8.830952    -8.874021    31.010801    56.081390    33.059273    -2.578477    -10.559628    16.380194    3.547786    -10.197757    -0.101188    6.626992    -26.913288    4.040638    -9.669823    59.940380    4.502111    -12.193897    -17.894768    0.532577    0.000000    0.000000    0.000000    4.202433    4.344489    -0.348191    2.676283    -2.583728    -1.926590    -9.366636    -2.536773    -14.106984    0.000000    0.000000    0.000000    
-9.999864    102.649673    43.440102    -2.673450    -0.858082    97.430290    -2.538273    -8.363662    1.842422    6.445650    7.194652    1.622364    2.377048    7.765348    -1.467628    0.468551    -5.849066    -1.624180    -9.514002    12.629820    -12.468970    -50.693092    38.225540    -14.459985    2.080727    -6.568030    -21.864046    -8.307140    -6.501798    4.617451    7.442407    8.888932    -8.819864    30.805519    56.064148    33.333862    -2.648939    -10.437801    16.286610    3.827865    -10.066209    -0.040418    6.607687    -27.261841    3.620833    -11.057206    60.844887    5.837265    -11.971921    -18.313175    0.668094    0.000000    0.000000    0.000000    4.121657    4.262160    -0.904516    2.615251    -2.376353    -1.547628    -9.349104    -2.509526    -13.908494    0.000000    0.000000    0.000000    
